<svg width="1440" height="747" viewBox="0 0 1440 747" fill="none" xmlns="http://www.w3.org/2000/svg">
<path d="M1097.7 0.0791016H1078.76C1078.76 25.177 1099.11 45.5225 1124.21 45.5225H1196.17V26.5845H1124.21C1109.56 26.5845 1097.7 14.7156 1097.7 0.0791016Z" fill="#2D3E4C"/>
<path d="M1355.98 503.436V484.498C1381.07 484.498 1401.42 504.844 1401.42 529.942V601.906H1382.48V529.942C1382.49 515.305 1370.62 503.436 1355.98 503.436Z" fill="#2D3E4C"/>
<path d="M1342.72 546.99V565.928C1317.63 565.928 1297.28 545.582 1297.28 520.484V448.52H1316.22V520.484C1316.21 535.129 1328.08 546.99 1342.72 546.99Z" fill="#2D3E4C"/>
<path d="M1284.02 98.47V117.408C1258.92 117.408 1238.58 97.0625 1238.58 71.9647V0H1257.52V71.9647C1257.51 86.609 1269.38 98.47 1284.02 98.47Z" fill="#2D3E4C"/>
<path d="M1471.1 302.693V321.631C1446 321.631 1425.66 301.285 1425.66 276.187V204.223H1444.59V276.187C1444.59 290.832 1456.46 302.693 1471.1 302.693Z" fill="#2D3E4C"/>
<path d="M1221.53 298.913H1202.59C1202.59 324.011 1222.94 344.357 1248.03 344.357H1320V325.418H1248.03C1233.4 325.418 1221.53 313.55 1221.53 298.913Z" fill="#2D3E4C"/>
<path d="M1383.61 240.209H1402.54C1402.54 265.307 1382.2 285.652 1357.1 285.652H1285.14V266.714H1357.1C1371.74 266.714 1383.61 254.845 1383.61 240.209Z" fill="#2D3E4C"/>
<path d="M1355.98 111.209V92.2708C1381.07 92.2708 1401.42 112.616 1401.42 137.714V209.679H1382.48V137.714C1382.49 123.07 1370.62 111.209 1355.98 111.209Z" fill="#2D3E4C"/>
<path d="M1367.5 340.569V321.631C1392.6 321.631 1412.94 341.976 1412.94 367.074V439.039H1394V367.074C1394.01 352.438 1382.14 340.569 1367.5 340.569Z" fill="#2D3E4C"/>
<path d="M1327.73 92.2706H1308.79C1308.79 67.1727 1329.14 46.8271 1354.24 46.8271H1426.2V65.7652H1354.24C1339.6 65.7573 1327.73 77.6262 1327.73 92.2706Z" fill="#2D3E4C"/>
<path d="M1269.03 439.039H1250.09C1250.09 413.941 1270.44 393.595 1295.53 393.595H1367.5V412.534H1295.53C1280.9 412.534 1269.03 424.402 1269.03 439.039Z" fill="#2D3E4C"/>
<path d="M1119.6 194.418L1100.67 193.706C1101.61 168.624 1122.71 149.061 1147.79 149.994L1219.7 152.691L1218.99 171.613L1147.08 168.916C1132.44 168.371 1120.14 179.781 1119.6 194.418Z" fill="#2D3E4C"/>
<path d="M1442.48 520.484C1429.93 520.484 1419.76 530.661 1419.76 543.21C1419.76 555.759 1429.93 565.936 1442.48 565.936C1455.03 565.936 1465.21 555.759 1465.21 543.21C1465.21 530.653 1455.03 520.484 1442.48 520.484ZM1442.48 556.463C1435.16 556.463 1429.23 550.532 1429.23 543.21C1429.23 535.888 1435.17 529.957 1442.48 529.957C1449.81 529.957 1455.74 535.888 1455.74 543.21C1455.74 550.524 1449.81 556.463 1442.48 556.463Z" fill="#2D3E4C"/>
<path d="M1261.29 537.272C1248.75 537.272 1238.57 547.448 1238.57 559.997C1238.57 572.546 1248.75 582.723 1261.29 582.723C1273.84 582.723 1284.02 572.546 1284.02 559.997C1284.02 547.448 1273.84 537.272 1261.29 537.272ZM1261.29 573.25C1253.97 573.25 1248.04 567.32 1248.04 559.997C1248.04 552.675 1253.98 546.745 1261.29 546.745C1268.62 546.745 1274.55 552.675 1274.55 559.997C1274.56 567.32 1268.62 573.25 1261.29 573.25Z" fill="#2D3E4C"/>
<path d="M1160.18 298.913C1147.63 298.913 1137.46 309.09 1137.46 321.639C1137.46 334.188 1147.63 344.364 1160.18 344.364C1172.73 344.364 1182.91 334.188 1182.91 321.639C1182.91 309.082 1172.73 298.913 1160.18 298.913ZM1160.18 334.891C1152.86 334.891 1146.93 328.961 1146.93 321.639C1146.93 314.317 1152.87 308.386 1160.18 308.386C1167.51 308.386 1173.44 314.317 1173.44 321.639C1173.44 328.953 1167.51 334.891 1160.18 334.891Z" fill="#2D3E4C"/>
<path d="M1250.09 699.641C1256.1 699.641 1260.97 694.77 1260.97 688.76C1260.97 682.751 1256.1 677.88 1250.09 677.88C1244.08 677.88 1239.21 682.751 1239.21 688.76C1239.21 694.77 1244.08 699.641 1250.09 699.641Z" fill="#2D3E4C"/>
<path d="M107.726 173C95.1767 173 85 183.177 85 195.726C85 208.275 95.1767 218.451 107.726 218.451C120.275 218.451 130.451 208.275 130.451 195.726C130.451 183.169 120.283 173 107.726 173ZM107.726 208.978C100.403 208.978 94.473 203.048 94.473 195.726C94.473 188.404 100.411 182.473 107.726 182.473C115.048 182.473 120.978 188.404 120.978 195.726C120.986 203.04 115.048 208.978 107.726 208.978Z" fill="#22B573"/>
<path d="M1448.37 449.919C1454.38 449.919 1459.25 445.048 1459.25 439.039C1459.25 433.03 1454.38 428.158 1448.37 428.158C1442.37 428.158 1437.49 433.03 1437.49 439.039C1437.49 445.048 1442.37 449.919 1448.37 449.919Z" fill="#2D3E4C"/>
<path d="M1205.63 128.289C1211.64 128.289 1216.52 123.417 1216.52 117.408C1216.52 111.399 1211.64 106.528 1205.63 106.528C1199.63 106.528 1194.75 111.399 1194.75 117.408C1194.75 123.417 1199.63 128.289 1205.63 128.289Z" fill="#2D3E4C"/>
<path d="M1437.5 183.071C1443.51 183.071 1448.38 178.199 1448.38 172.19C1448.38 166.181 1443.51 161.31 1437.5 161.31C1431.49 161.31 1426.62 166.181 1426.62 172.19C1426.62 178.199 1431.49 183.071 1437.5 183.071Z" fill="#2D3E4C"/>
<path d="M1217.92 396.015V377.077C1192.82 377.077 1172.47 397.423 1172.47 422.521V494.485H1191.41V422.521C1191.4 407.884 1203.27 396.015 1217.92 396.015Z" fill="#2D3E4C"/>
<path d="M1049.47 123H1068.41C1068.41 148.098 1048.06 168.443 1022.96 168.443H951V149.513H1022.96C1037.6 149.505 1049.47 137.644 1049.47 123Z" fill="#2D3E4C"/>
<path d="M-55.0619 357.126H-74C-74 332.028 -53.6544 311.682 -28.5565 311.682H43.4081V330.62H-28.5565C-43.2009 330.62 -55.0619 342.489 -55.0619 357.126Z" fill="#2D3E4C"/>
<path d="M1119.52 582.344H1100.58C1100.58 557.246 1120.92 536.9 1146.02 536.9H1217.99V555.838H1146.02C1131.38 555.83 1119.52 567.699 1119.52 582.344Z" fill="#2D3E4C"/>
<path d="M928.438 392.5H909.5C909.5 367.402 929.846 347.057 954.944 347.057H1026.91V365.995H954.944C940.299 365.987 928.438 377.856 928.438 392.5Z" fill="#2D3E4C"/>
<path d="M1106.78 654.3H1125.72C1125.72 679.398 1105.37 699.744 1080.27 699.744H1008.31V680.814H1080.27C1094.92 680.806 1106.78 668.945 1106.78 654.3Z" fill="#2D3E4C"/>
<path d="M1125.72 626.055V607.117C1150.81 607.117 1171.16 627.463 1171.16 652.561V724.525H1152.22V652.561C1152.23 637.916 1140.36 626.055 1125.72 626.055Z" fill="#2D3E4C"/>
<path d="M1023.58 417.918L1024.29 398.996C1049.37 399.937 1068.93 421.034 1068 446.116L1065.3 518.025L1046.38 517.314L1049.08 445.404C1049.62 430.768 1038.2 418.464 1023.58 417.918Z" fill="#2D3E4C"/>
<path d="M383.984 98.8653C383.984 86.3164 373.807 76.1396 361.258 76.1396C348.709 76.1396 338.533 86.3164 338.533 98.8653C338.533 111.414 348.709 121.591 361.258 121.591C373.807 121.583 383.984 111.414 383.984 98.8653ZM348.006 98.8653C348.006 91.5431 353.936 85.6126 361.258 85.6126C368.58 85.6126 374.511 91.551 374.511 98.8653C374.511 106.18 368.58 112.118 361.258 112.118C353.936 112.118 348.006 106.18 348.006 98.8653Z" fill="#2D3E4C"/>
<path d="M1100.58 514.831C1106.59 514.831 1111.46 509.959 1111.46 503.95C1111.46 497.941 1106.59 493.07 1100.58 493.07C1094.57 493.07 1089.7 497.941 1089.7 503.95C1089.7 509.959 1094.57 514.831 1100.58 514.831Z" fill="#2D3E4C"/>
<path d="M1045.8 746.698C1051.81 746.698 1056.68 741.826 1056.68 735.817C1056.68 729.808 1051.81 724.937 1045.8 724.937C1039.79 724.937 1034.92 729.808 1034.92 735.817C1034.92 741.826 1039.79 746.698 1045.8 746.698Z" fill="#2D3E4C"/>
</svg>
